<svg xmlns="http://www.w3.org/2000/svg" viewBox="0 0 732 358.81"><defs><style>.cls-1{fill:#565656;}.cls-2{fill:#fe6e06;}.cls-3{fill:#1a00d9;}</style></defs><g id="Layer_2" data-name="Layer 2"><g id="Layer_1-2" data-name="Layer 1"><path class="cls-1" d="M279.13,340.44h-6.4v-6.78h-.15q-4.45,7.71-13.73,7.72a14.92,14.92,0,0,1-12-5.36q-4.51-5.37-4.51-14.61,0-9.9,5-15.87a16.48,16.48,0,0,1,13.3-6q8.23,0,12,6.47h.15V281.32h6.4Zm-6.4-18.05V316.5a11.41,11.41,0,0,0-3.19-8.19,10.74,10.74,0,0,0-8.12-3.36,11,11,0,0,0-9.2,4.29q-3.36,4.29-3.36,11.86,0,6.9,3.22,10.9a10.55,10.55,0,0,0,8.64,4,10.94,10.94,0,0,0,8.68-3.86A14.42,14.42,0,0,0,272.73,322.39Z"/><path class="cls-1" d="M328.65,340.44h-6.39V334.2h-.16a13.38,13.38,0,0,1-12.28,7.18q-6,0-9.34-3.16a11,11,0,0,1-3.38-8.39q0-11.19,13.18-13l12-1.68q0-10.19-8.23-10.18a19.67,19.67,0,0,0-13,4.92v-6.56a24.8,24.8,0,0,1,13.57-3.74q14.08,0,14.08,14.9Zm-6.39-20.2-9.64,1.33a15.54,15.54,0,0,0-6.7,2.2q-2.26,1.58-2.27,5.6a6.08,6.08,0,0,0,2.09,4.77A8,8,0,0,0,311.3,336a10.26,10.26,0,0,0,7.86-3.34,11.94,11.94,0,0,0,3.1-8.44Z"/><path class="cls-1" d="M367.22,340.05a12.37,12.37,0,0,1-6,1.25q-10.49,0-10.49-11.7V306H343.9V300.5h6.86v-9.75l6.4-2.06V300.5h10.06V306H357.16v22.5q0,4,1.36,5.73t4.53,1.72a6.69,6.69,0,0,0,4.17-1.33Z"/><path class="cls-1" d="M412.34,340.44h-6.4V334.2h-.16a13.37,13.37,0,0,1-12.28,7.18q-6,0-9.34-3.16a11,11,0,0,1-3.38-8.39q0-11.19,13.19-13l12-1.68q0-10.19-8.23-10.18a19.67,19.67,0,0,0-13,4.92v-6.56a24.81,24.81,0,0,1,13.58-3.74q14.07,0,14.08,14.9Zm-6.4-20.2-9.63,1.33a15.59,15.59,0,0,0-6.71,2.2q-2.27,1.58-2.26,5.6a6.07,6.07,0,0,0,2.08,4.77A8.05,8.05,0,0,0,395,336a10.26,10.26,0,0,0,7.86-3.34,11.9,11.9,0,0,0,3.1-8.44Z"/><path class="cls-1" d="M459.83,339v-6.86a18.92,18.92,0,0,0,11.5,3.86q8.43,0,8.43-5.62a4.87,4.87,0,0,0-.73-2.71,7.15,7.15,0,0,0-1.95-2,15,15,0,0,0-2.88-1.54c-1.11-.46-2.3-.93-3.57-1.42a46.47,46.47,0,0,1-4.66-2.13,13.94,13.94,0,0,1-3.36-2.42,8.87,8.87,0,0,1-2-3.06,10.71,10.71,0,0,1-.69-4,9.51,9.51,0,0,1,1.29-5,11.52,11.52,0,0,1,3.43-3.63,16,16,0,0,1,4.9-2.2,21.83,21.83,0,0,1,5.67-.74,23,23,0,0,1,9.28,1.79v6.48A18,18,0,0,0,474.33,305a11.94,11.94,0,0,0-3.23.41,8,8,0,0,0-2.48,1.15,5.41,5.41,0,0,0-1.6,1.78,4.64,4.64,0,0,0-.56,2.28,5.42,5.42,0,0,0,.56,2.61,5.73,5.73,0,0,0,1.66,1.87,12.43,12.43,0,0,0,2.65,1.48c1,.45,2.22.93,3.55,1.45a49.68,49.68,0,0,1,4.76,2.08,16.92,16.92,0,0,1,3.59,2.42,9.54,9.54,0,0,1,2.28,3.1,10.05,10.05,0,0,1,.8,4.18A9.82,9.82,0,0,1,485,334.9a11.09,11.09,0,0,1-3.49,3.63,16.1,16.1,0,0,1-5,2.15,25.29,25.29,0,0,1-6,.7A22.56,22.56,0,0,1,459.83,339Z"/><path class="cls-1" d="M510.68,334.67h-.16v24.14h-6.4V300.5h6.4v7h.16a15.1,15.1,0,0,1,13.8-8q7.72,0,12,5.36t4.33,14.37q0,10-4.87,16.05t-13.34,6A13.36,13.36,0,0,1,510.68,334.67Zm-.16-16.11v5.58a11.85,11.85,0,0,0,3.22,8.4,11.47,11.47,0,0,0,17.28-1q3.29-4.44,3.29-12.36,0-6.68-3.08-10.46a10.2,10.2,0,0,0-8.35-3.78,11.34,11.34,0,0,0-9,3.88A14.26,14.26,0,0,0,510.52,318.56Z"/><path class="cls-1" d="M591.17,322.07H563q.15,6.68,3.59,10.3T576,336a19.66,19.66,0,0,0,12.4-4.45v6q-5.26,3.82-13.92,3.82-8.47,0-13.3-5.44t-4.84-15.31q0-9.31,5.28-15.19a17,17,0,0,1,13.13-5.87q7.83,0,12.13,5.07t4.29,14.08Zm-6.55-5.42q0-5.53-2.68-8.62a9.1,9.1,0,0,0-7.31-3.08,10.32,10.32,0,0,0-7.68,3.24,14.65,14.65,0,0,0-3.9,8.46Z"/><path class="cls-1" d="M637.42,340.44H631V334.2h-.16a13.37,13.37,0,0,1-12.28,7.18q-6,0-9.34-3.16a11,11,0,0,1-3.38-8.39q0-11.19,13.19-13l12-1.68q0-10.19-8.23-10.18a19.67,19.67,0,0,0-13,4.92v-6.56a24.81,24.81,0,0,1,13.58-3.74q14.07,0,14.08,14.9Zm-6.4-20.2-9.63,1.33a15.59,15.59,0,0,0-6.71,2.2q-2.26,1.58-2.26,5.6a6.07,6.07,0,0,0,2.08,4.77,8.05,8.05,0,0,0,5.56,1.86,10.26,10.26,0,0,0,7.86-3.34,11.9,11.9,0,0,0,3.1-8.44Z"/><path class="cls-1" d="M690.61,340.44h-9L664,321.25h-.16v19.19h-6.39V281.32h6.39V318.8H664l16.77-18.3h8.38l-18.52,19.27Z"/><path class="cls-1" d="M702.73,339v-6.86A19,19,0,0,0,714.24,336q8.41,0,8.42-5.62a4.87,4.87,0,0,0-.72-2.71,7.15,7.15,0,0,0-2-2,14.77,14.77,0,0,0-2.89-1.54c-1.1-.46-2.29-.93-3.57-1.42a46.47,46.47,0,0,1-4.66-2.13,13.88,13.88,0,0,1-3.35-2.42,8.76,8.76,0,0,1-2-3.06,10.71,10.71,0,0,1-.68-4,9.6,9.6,0,0,1,1.28-5,11.55,11.55,0,0,1,3.44-3.63,16,16,0,0,1,4.89-2.2,21.91,21.91,0,0,1,5.68-.74,23,23,0,0,1,9.28,1.79v6.48A18.05,18.05,0,0,0,717.24,305a12,12,0,0,0-3.24.41,8,8,0,0,0-2.48,1.15,5.37,5.37,0,0,0-1.59,1.78,4.65,4.65,0,0,0-.57,2.28,5.42,5.42,0,0,0,.57,2.61,5.58,5.58,0,0,0,1.65,1.87,12.28,12.28,0,0,0,2.66,1.48c1,.45,2.22.93,3.54,1.45a48.6,48.6,0,0,1,4.76,2.08,16.67,16.67,0,0,1,3.59,2.42,9.4,9.4,0,0,1,2.28,3.1,10.05,10.05,0,0,1,.8,4.18,9.82,9.82,0,0,1-1.3,5.14,11.23,11.23,0,0,1-3.5,3.63,16,16,0,0,1-5,2.15,25.2,25.2,0,0,1-6,.7A22.63,22.63,0,0,1,702.73,339Z"/><path class="cls-2" d="M633.6,76.06a43.83,43.83,0,0,0-42.18-42.47V76.06Z"/><path class="cls-3" d="M211.28,246.43q-39.14,22.11-87,22.11-55.62,0-90-35.88T0,137.71q0-60.33,38.14-99T134.81,0Q177.22,0,206,13.77v33.7Q174.5,27.55,131.37,27.54q-43.66,0-71.57,30.08T31.89,135.54q0,49.29,25.91,77.46t70.31,28.18q30.44,0,52.73-12.14V156.2h-56.9V128.65h87.34Z"/><path class="cls-3" d="M386.39,264.19H356.68v-29H356q-19.4,33.35-57.08,33.34-27.72,0-43.39-14.68t-15.68-39q0-52,61.25-60.53l55.63-7.79q0-47.29-38.24-47.29-33.53,0-60.52,22.83V91.69q27.36-17.4,63.06-17.4,65.41,0,65.41,69.22Zm-29.71-93.86-44.76,6.16q-20.66,2.89-31.17,10.24t-10.51,26q0,13.59,9.7,22.2t25.82,8.6q22.11,0,36.51-15.49t14.41-39.23Z"/><path class="cls-3" d="M569.25,264.19H539.53V158.37q0-59.07-43.12-59.07-22.29,0-36.88,16.76T445,158.37V264.19H415.23V78.64H445v30.8h.72q21-35.14,60.88-35.15Q537,74.29,553.12,94t16.13,56.81Z"/><path class="cls-3" d="M627.37,264.19H597.65v-171h29.72Z"/><path class="cls-3" d="M655.53,104V213.82q0,54.36,48.75,54.36,17.21,0,27.72-5.8V237a31.24,31.24,0,0,1-19.39,6.16q-14.67,0-21-8t-6.34-26.64V104H732V78.64H685.25V33.86H655.53V78.64"/></g></g></svg>